<?xml version="1.0" encoding="utf-8"?>
<!-- Generator: Adobe Illustrator 16.0.3, SVG Export Plug-In . SVG Version: 6.00 Build 0)  -->
<!DOCTYPE svg PUBLIC "-//W3C//DTD SVG 1.1//EN" "http://www.w3.org/Graphics/SVG/1.1/DTD/svg11.dtd">
<svg version="1.1" id="Ebene_1" xmlns="http://www.w3.org/2000/svg" xmlns:xlink="http://www.w3.org/1999/xlink" x="0px" y="0px"
	 width="430px" height="35px" viewBox="-2.5 -2.5 430 35" enable-background="new -2.5 -2.5 430 35" xml:space="preserve">
<g>
	<g>
		<path fill="#010000" d="M189.854,26.645c0,2.705,0.978,2.945,0.978,2.945h22.772v-0.761c0-0.159-0.778-0.183-0.778-2.116
			c0-1.933,0.778-1.956,0.778-2.111V23.7h-22.772C190.831,23.699,189.854,23.938,189.854,26.645 M208.45,12.992V12.65h-17.619
			c0,0-0.978-0.129-0.978,2.577c0,2.705,0.978,2.578,0.978,2.578h17.619v-0.586c0-0.158-0.781-0.182-0.781-2.116
			C207.669,13.17,208.45,13.148,208.45,12.992 M189.854,3.443c0,2.706,0.978,2.579,0.978,2.579h22.772V5.607
			c0-0.157-0.778-0.181-0.778-2.114c0-1.933,0.778-1.957,0.778-2.113V0.865h-22.772C190.831,0.865,189.854,0.737,189.854,3.443
			 M24.315,29.59h6.628V17.805h11.049v-5.892H30.944V6.022h12.521V0.865h-19.15V29.59z M106.07,18.061
			c0,2.313-0.354,3.951-1.33,4.916c-0.98,0.965-2.187,1.446-3.759,1.446c-0.771,0-1.446-0.11-2.093-0.331
			c-0.646-0.224-1.183-0.586-1.637-1.096s-0.825-1.171-1.086-1.984c-0.262-0.81-0.407-1.795-0.407-2.951V0.865h-6.629v17.732
			c0,1.678,0.341,3.213,0.797,4.605c0.452,1.388,1.212,2.591,2.162,3.597c0.95,1.003,2.185,1.788,3.646,2.353
			C97.192,29.719,98.942,30,100.953,30c2.039,0,3.809-0.275,5.298-0.827c1.486-0.555,2.712-1.329,3.679-2.336
			c0.964-1.002,1.639-2.208,2.108-3.612c0.469-1.406,0.661-2.949,0.661-4.627V0.865h-6.629L106.07,18.061L106.07,18.061z
			 M143.34,15.537c-0.73-0.716-1.646-1.341-2.747-1.879c-1.103-0.539-2.397-1.08-3.883-1.631c-0.719-0.248-1.373-0.491-1.964-0.722
			c-0.594-0.236-1.115-0.498-1.571-0.789c-0.454-0.288-0.806-0.611-1.053-0.97c-0.25-0.356-0.374-0.796-0.374-1.323
			c0-0.879,0.34-1.533,1.012-1.958c0.678-0.429,1.784-0.643,3.329-0.643c1.377,0,2.555,0.158,3.532,0.472
			c0.977,0.32,1.864,0.684,2.664,1.099l1.859-5.083c-0.909-0.498-2.066-0.951-3.472-1.363c-1.406-0.417-3.07-0.62-4.999-0.62
			c-1.626,0-3.086,0.198-4.38,0.596c-1.295,0.403-2.396,0.975-3.307,1.715c-0.91,0.744-1.61,1.65-2.106,2.708
			c-0.496,1.06-0.746,2.25-0.746,3.576c0,1.321,0.235,2.442,0.704,3.364c0.467,0.925,1.075,1.708,1.817,2.358
			c0.745,0.645,1.585,1.186,2.52,1.611c0.938,0.428,1.874,0.805,2.814,1.135c2.146,0.718,3.659,1.381,4.543,2.006
			c0.882,0.619,1.32,1.398,1.32,2.332c0,0.441-0.069,0.842-0.204,1.199c-0.141,0.357-0.387,0.668-0.743,0.931
			c-0.359,0.262-0.837,0.469-1.427,0.618c-0.594,0.152-1.344,0.229-2.253,0.229c-1.817,0-3.354-0.187-4.606-0.56
			c-1.253-0.37-2.31-0.793-3.161-1.262l-1.818,5.123c0.386,0.221,0.859,0.455,1.426,0.707c0.564,0.244,1.24,0.479,2.023,0.699
			c0.786,0.221,1.688,0.406,2.708,0.559c1.019,0.15,2.163,0.229,3.43,0.229c3.771,0,6.599-0.736,8.472-2.208
			c1.871-1.479,2.81-3.549,2.81-6.224c0-1.379-0.18-2.547-0.537-3.51S144.069,16.254,143.34,15.537 M265.161,29.59h6.629V0.865
			h-6.629V29.59z M282.101,6.022h8.84V29.59h5.895V6.022h8.84V0.865h-23.572L282.101,6.022L282.101,6.022z M315.982,29.59h6.629
			V0.865h-6.629V29.59z M394.797,17.688c-1.475-1.485-2.231-3.036-3.363-4.647c-1.129-1.609-2.354-3.165-3.495-4.67
			c-1.146-1.499-2.313-2.872-3.414-4.193c-1.104-1.321-2.149-2.573-3.062-3.312h-5.084V29.59h5.892V10.663
			c2.948,2.837,4.864,5.938,7.015,9.133c2.146,3.196,4.305,6.11,6.146,9.794h5.259V0.865h-5.892L394.797,17.688L394.797,17.688z
			 M359.236,3.926c-1.295-1.263-2.813-2.215-4.545-2.851c-1.735-0.63-3.582-0.947-5.534-0.947c-1.902,0-3.716,0.317-5.438,0.947
			c-1.723,0.636-3.237,1.588-4.543,2.851c-1.311,1.27-2.35,2.833-3.119,4.69c-0.771,1.862-1.159,4.017-1.159,6.467
			c0,2.452,0.371,4.604,1.114,6.466c0.744,1.862,1.765,3.418,3.063,4.672c1.295,1.254,2.811,2.198,4.543,2.825
			c1.735,0.638,3.584,0.954,5.541,0.954c2.004,0,3.889-0.316,5.635-0.954c1.75-0.627,3.256-1.571,4.526-2.825
			c1.265-1.254,2.269-2.812,2.998-4.672c0.728-1.859,1.088-4.014,1.088-6.466c0-2.45-0.364-4.604-1.108-6.467
			C361.547,6.759,360.527,5.195,359.236,3.926 M356.238,18.887c-0.345,1.129-0.836,2.098-1.483,2.91
			c-0.647,0.816-1.451,1.439-2.397,1.883c-0.951,0.439-2.019,0.66-3.198,0.66c-1.218,0-2.291-0.221-3.227-0.66
			c-0.938-0.44-1.729-1.065-2.379-1.883c-0.646-0.813-1.143-1.781-1.487-2.91c-0.345-1.131-0.513-2.396-0.513-3.804
			c0-1.375,0.168-2.636,0.513-3.778c0.347-1.144,0.843-2.122,1.487-2.937c0.648-0.81,1.441-1.447,2.379-1.898
			c0.936-0.455,2.009-0.684,3.227-0.684c1.182,0,2.247,0.222,3.198,0.663c0.946,0.439,1.75,1.064,2.397,1.879
			c0.647,0.813,1.142,1.793,1.483,2.932c0.347,1.144,0.519,2.417,0.519,3.823C356.756,16.49,356.584,17.756,356.238,18.887
			 M162.985,0.865h-8.301v5.157h8.301h0.536V29.59h5.893V6.022h0.553h8.286V0.865h-8.286H162.985z M247.067,3.909
			c-1.426-1.184-3.135-2.048-5.129-2.6c-1.992-0.548-4.215-0.823-6.655-0.823c-1.158,0-2.357,0.048-3.966,0.145
			c-1.604,0.097-2.979,0.283-4.455,0.555v27.83c1.476,0.305,2.812,0.5,4.353,0.596c1.539,0.103,2.798,0.146,3.951,0.146
			c2.528,0,4.765-0.3,6.797-0.906c2.033-0.604,3.738-1.508,5.149-2.722c1.416-1.209,2.498-2.735,3.271-4.575
			c0.769-1.84,1.146-4,1.146-6.47c0-2.584-0.385-4.796-1.154-6.641C249.603,6.603,248.501,5.088,247.067,3.909 M242.558,21.801
			c-1.553,1.622-3.938,2.432-7.154,2.432c-0.553,0-1.107-0.006-1.51-0.021c-0.396-0.015-0.4-0.034-1.141-0.062V6.093
			c0.738-0.054,0.941-0.088,1.41-0.102c0.467-0.014,0.963-0.021,1.398-0.021c3.221,0,5.588,0.77,7.076,2.309
			c1.482,1.538,2.236,3.807,2.236,6.804C244.876,17.938,244.112,20.178,242.558,21.801 M64.974,0c-2.707,0-3.02,1.061-3.02,1.061
			l-11.4,28.529h0.698c0.157-0.736,4.25-0.863,6.185-0.863l7.431-21.351l7.74,21.37c1.935,0,6.026,0.105,6.185,0.844h0.697
			L67.994,1.061C67.994,1.061,67.679,0,64.974,0"/>
	</g>
	<path fill="#FFC20C" d="M0,14.917c0,4.724,1.706,5.267,1.706,5.267l8.003-5.267L1.706,9.646C1.706,9.646,0,10.194,0,14.917"/>
	<path fill="#FFC20C" d="M423.295,9.646l-8,5.271l8,5.267c0,0,1.705-0.543,1.705-5.267C425,10.194,423.295,9.646,423.295,9.646"/>
</g>
</svg>
