<?xml version="1.0" encoding="utf-8"?>
<!-- Generator: Adobe Illustrator 16.0.3, SVG Export Plug-In . SVG Version: 6.00 Build 0)  -->
<!DOCTYPE svg PUBLIC "-//W3C//DTD SVG 1.1//EN" "http://www.w3.org/Graphics/SVG/1.1/DTD/svg11.dtd">
<svg version="1.1" id="Ebene_1" xmlns="http://www.w3.org/2000/svg" xmlns:xlink="http://www.w3.org/1999/xlink" x="0px" y="0px"
	 width="380px" height="30px" viewBox="0 0 380 30" enable-background="new 0 0 380 30" xml:space="preserve">
<g>
	<polygon points="19.461,1.839 19.461,28.437 25.267,28.437 25.267,17.462 35.456,17.462 35.456,12.434 25.267,12.434 25.267,6.868 
		36.718,6.868 36.718,1.839 	"/>
	<g>
		<path d="M59.732,17.921c-0.396-1.153-0.776-2.255-1.148-3.303c-0.369-1.054-0.719-2.016-1.051-2.888
			c-0.333-0.87-0.629-1.635-0.879-2.3c-0.247-0.667-0.451-1.185-0.604-1.562c-0.135,0.383-0.324,0.911-0.571,1.574
			c-0.251,0.665-0.532,1.434-0.854,2.305c-0.317,0.871-0.674,1.83-1.068,2.88c-0.394,1.045-0.788,2.145-1.197,3.294l-1.32,4.76
			c-0.325,0.969-0.654,1.943-0.98,2.918c-0.325,0.975-0.629,1.921-0.914,2.838h-6.023c0.972-2.863,1.891-5.513,2.76-7.945
			c0.869-2.431,1.723-4.719,2.555-6.867c0.831-2.15,1.655-4.188,2.466-6.122c0.804-1.935,1.646-3.82,2.515-5.663h5.501
			c0.85,1.843,1.682,3.729,2.507,5.663c0.819,1.933,1.649,3.972,2.482,6.122c0.837,2.148,1.689,4.437,2.558,6.867
			c0.876,2.433,1.797,5.082,2.767,7.945h-6.214c-0.285-0.923-0.597-1.872-0.925-2.848c-0.329-0.972-0.658-1.942-0.989-2.908
			L59.732,17.921z"/>
		<path d="M88.578,28.975c-1.815,0-3.374-0.262-4.689-0.786c-1.315-0.524-2.4-1.252-3.254-2.187
			c-0.858-0.935-1.488-2.05-1.897-3.339c-0.412-1.295-0.618-2.722-0.618-4.279V1.84h5.806v16.045c0,1.074,0.118,1.989,0.355,2.741
			c0.236,0.757,0.557,1.371,0.968,1.844c0.405,0.474,0.905,0.811,1.486,1.019c0.579,0.204,1.221,0.305,1.913,0.305
			c1.414,0,2.561-0.445,3.441-1.343c0.884-0.896,1.32-2.418,1.32-4.565V1.84h5.806v16.544c0,1.558-0.211,2.993-0.636,4.297
			c-0.418,1.305-1.066,2.424-1.932,3.358c-0.873,0.935-1.974,1.654-3.309,2.168C91.998,28.719,90.412,28.975,88.578,28.975"/>
		<path d="M118.52,23.871c0.821,0,1.494-0.072,2.027-0.213c0.531-0.14,0.962-0.331,1.282-0.573c0.328-0.244,0.545-0.531,0.675-0.866
			c0.12-0.33,0.184-0.702,0.184-1.111c0-0.869-0.397-1.595-1.192-2.168c-0.796-0.578-2.155-1.197-4.092-1.862
			c-0.842-0.308-1.688-0.658-2.529-1.056c-0.841-0.396-1.597-0.895-2.271-1.496c-0.667-0.603-1.212-1.33-1.635-2.189
			c-0.424-0.857-0.63-1.899-0.63-3.126c0-1.231,0.22-2.337,0.669-3.321c0.45-0.983,1.076-1.823,1.898-2.515
			c0.815-0.689,1.809-1.22,2.978-1.592c1.16-0.372,2.475-0.556,3.938-0.556c1.738,0,3.238,0.191,4.502,0.574
			c1.265,0.385,2.305,0.806,3.125,1.269l-1.674,4.72c-0.719-0.385-1.521-0.722-2.399-1.018c-0.879-0.293-1.941-0.441-3.182-0.441
			c-1.387,0-2.387,0.2-2.997,0.597c-0.602,0.397-0.91,1.003-0.91,1.821c0,0.488,0.115,0.896,0.34,1.228
			c0.218,0.334,0.538,0.634,0.942,0.902c0.413,0.269,0.886,0.512,1.418,0.731c0.531,0.215,1.123,0.44,1.765,0.67
			c1.34,0.513,2.508,1.015,3.495,1.516c0.995,0.5,1.816,1.081,2.476,1.747c0.654,0.665,1.149,1.446,1.47,2.343
			c0.319,0.896,0.479,1.981,0.479,3.261c0,2.482-0.84,4.407-2.527,5.776c-1.687,1.368-4.229,2.053-7.627,2.053
			c-1.143,0-2.169-0.072-3.087-0.212c-0.917-0.141-1.731-0.313-2.438-0.517c-0.706-0.204-1.314-0.425-1.821-0.651
			c-0.508-0.23-0.937-0.448-1.283-0.652l1.637-4.761c0.768,0.435,1.718,0.823,2.848,1.172
			C115.502,23.697,116.882,23.871,118.52,23.871"/>
	</g>
	<rect x="235.736" y="1.839" width="5.8" height="26.597"/>
	<polygon points="273.303,1.839 273.303,6.946 265.529,6.946 265.529,28.437 259.728,28.437 259.728,6.946 251.953,6.946 
		251.953,1.839 	"/>
	<rect x="283.725" y="1.839" width="5.798" height="26.597"/>
	<g>
		<path d="M326.731,15.119c0,2.277-0.337,4.279-0.995,6.008c-0.653,1.727-1.557,3.172-2.688,4.337
			c-1.143,1.164-2.508,2.04-4.07,2.628c-1.578,0.59-3.279,0.883-5.088,0.883c-1.76,0-3.415-0.293-4.98-0.883
			c-1.563-0.588-2.924-1.464-4.091-2.628c-1.168-1.165-2.08-2.61-2.761-4.337c-0.665-1.729-0.998-3.73-0.998-6.008
			c0-2.276,0.346-4.278,1.037-6.005c0.693-1.728,1.636-3.18,2.815-4.358c1.182-1.173,2.542-2.058,4.094-2.648
			c1.542-0.588,3.176-0.881,4.884-0.881c1.769,0,3.425,0.293,4.991,0.881c1.562,0.59,2.925,1.475,4.092,2.648
			c1.167,1.178,2.075,2.63,2.748,4.358C326.393,10.841,326.731,12.843,326.731,15.119 M307.05,15.119
			c0,1.306,0.149,2.482,0.468,3.533c0.307,1.048,0.756,1.949,1.334,2.704c0.578,0.758,1.299,1.338,2.138,1.746
			c0.848,0.409,1.809,0.615,2.9,0.615c1.069,0,2.034-0.206,2.891-0.615c0.848-0.408,1.566-0.988,2.158-1.746
			c0.577-0.755,1.025-1.656,1.335-2.704c0.305-1.051,0.467-2.228,0.467-3.533c0-1.305-0.162-2.489-0.467-3.551
			c-0.31-1.059-0.758-1.968-1.335-2.724c-0.592-0.755-1.311-1.337-2.158-1.746c-0.856-0.409-1.821-0.615-2.891-0.615
			c-1.092,0-2.053,0.212-2.9,0.634c-0.839,0.421-1.56,1.012-2.138,1.765c-0.578,0.756-1.027,1.665-1.334,2.727
			C307.199,12.671,307.05,13.842,307.05,15.119"/>
		<path d="M355.561,28.437c-1.667-3.044-3.463-6.049-5.399-9.019c-1.938-2.967-3.992-5.77-6.174-8.405v17.423h-5.732V1.839h4.731
			c0.81,0.846,1.719,1.883,2.71,3.11c0.997,1.229,2.005,2.54,3.032,3.933c1.027,1.396,2.047,2.842,3.072,4.338
			c1.016,1.496,1.965,2.937,2.861,4.316V1.839h5.763v26.597H355.561z"/>
		<path fill="#FAB400" d="M189.974,4.354c0-1.796,0.449-2.302,0.701-2.449V1.839h-21.167c0,0-0.879,0-0.879,2.514
			s0.879,2.514,0.879,2.514h21.167V6.801C190.423,6.655,189.974,6.149,189.974,4.354"/>
		<path fill="#FAB400" d="M189.974,25.924c0-1.797,0.449-2.303,0.701-2.448v-0.066h-21.167c0,0-0.879,0-0.879,2.515
			c0,2.513,0.879,2.513,0.879,2.513h21.167v-0.065C190.423,28.226,189.974,27.719,189.974,25.924"/>
		<path fill="#FAB400" d="M188.217,15.138c0-1.795,0.447-2.303,0.701-2.448v-0.066h-19.412c0,0-0.877,0-0.877,2.515
			c0,2.513,0.877,2.513,0.877,2.513h19.412v-0.065C188.664,17.441,188.217,16.934,188.217,15.138"/>
	</g>
	<polygon points="150.694,1.839 150.694,6.946 150.437,6.946 150.437,28.437 144.636,28.437 144.636,6.946 136.862,6.946 
		136.862,1.839 	"/>
	<polygon points="144.409,1.839 144.409,6.946 144.666,6.946 144.666,28.437 150.466,28.437 150.466,6.946 158.241,6.946 
		158.241,1.839 	"/>
	<g>
		<path fill="#FFFFFF" d="M49.154,28.585c-0.865-0.563-1.903-0.895-3.02-0.895c-1.114,0-2.149,0.332-3.013,0.895H49.154z"/>
		<path d="M58.908,1.839c-0.784-0.513-1.724-0.814-2.743-0.814c-1.011,0-1.953,0.301-2.742,0.814H58.908z"/>
		<path fill="#FFFFFF" d="M69.233,28.585c-0.866-0.563-1.897-0.895-3.015-0.895c-1.115,0-2.154,0.332-3.02,0.895H69.233z"/>
		<path d="M207.381,23.541c0.27,0.027,0.583,0.045,0.941,0.058c0.357,0.012,0.787,0.021,1.286,0.021
			c2.894,0,5.037-0.754,6.435-2.261c1.405-1.507,2.104-3.586,2.104-6.241c0-2.783-0.666-4.89-2.01-6.318
			c-1.332-1.431-3.443-2.145-6.349-2.145c-0.396,0-0.794,0.006-1.218,0.019c-0.422,0.014-0.818,0.045-1.189,0.097V23.541z
			 M224.126,15.117c0,2.297-0.353,4.302-1.05,6.013c-0.692,1.71-1.672,3.127-2.952,4.249c-1.266,1.124-2.821,1.966-4.652,2.529
			c-1.831,0.561-3.88,0.843-6.157,0.843c-1.045,0-2.255-0.046-3.636-0.135c-1.396-0.089-2.754-0.273-4.082-0.555V2.211
			c1.328-0.255,2.721-0.427,4.163-0.517c1.448-0.089,2.696-0.134,3.733-0.134c2.201,0,4.205,0.255,5.999,0.766
			c1.791,0.511,3.334,1.315,4.612,2.413c1.294,1.098,2.279,2.502,2.972,4.212C223.773,10.663,224.126,12.717,224.126,15.117"/>
	</g>
	<polygon points="371.801,14.966 379,19.86 379,10.07 	"/>
	<polygon points="8.204,14.965 1,10.07 1,19.86 	"/>
</g>
</svg>
